<?xml version="1.0" encoding="UTF-8"?>
<svg xmlns="http://www.w3.org/2000/svg" xmlns:xlink="http://www.w3.org/1999/xlink" version="1.1" viewBox="0 0 305.8 305.8">
  <g style="isolation: isolate;">
    <g id="Layer_4">
      <g>
        <g>
          <image style="mix-blend-mode: multiply; opacity: 0;" width="1256" height="1223" transform="translate(9.4 13.3) scale(.2)" xlink:href="Restronaut Logo 4-02-1.png"/>
          <rect x="26.1" y="30" width="253.7" height="245.8" rx="53.7" ry="53.7" style="fill: #d5040b;"/>
        </g>
        <g>
          <path d="M99.4,214.6c-4.7,3.3-8.8,5.6-9.6,9.9-.4,2.3,0,5.8.3,7.9,0,.2,0,.3,0,.4.2,1.3.4,2.8.7,4,.7,0,1.7,0,2.9,0,3.6,0,8.1-.7,10.6-1.8,4.6-2.1,6.1-7.8,7.6-11.5,1.9-4.7,11.4-25.6,12.2-29.1-3,2.1-20.6,17.1-24.8,20.1Z" style="fill: #fff; stroke: #d5040b; stroke-miterlimit: 10; stroke-width: 0.7px;"/>
          <polygon points="184.6 162.4 198.6 137.2 194.8 126.6 165.2 162.9 184.6 162.4" style="fill: #fff; stroke: #d5040b; stroke-miterlimit: 10; stroke-width: 0.7px;"/>
          <polygon points="143.2 144.3 171.7 109 161 107.4 140 125.8 143.2 144.3" style="fill: #fff; stroke: #d5040b; stroke-miterlimit: 10; stroke-width: 0.7px;"/>
          <path d="M146.5,153.1l1,3.9,1.2,4.4h0s0,0,0,0h4.6c0,.1,4,.2,4,.2,5.8-7.5,11.6-15.1,17.4-22.6,4.7-6.1,9.4-12.3,14.1-18.4-1.6-1.3-3.3-2.6-4.9-3.9h0c-1.6-1.3-3.3-2.6-4.9-3.9-4.8,6-9.7,12-14.5,18-6,7.4-11.9,14.8-17.9,22.2Z" style="fill: #fff; stroke: #d5040b; stroke-miterlimit: 10; stroke-width: 0.7px;"/>
          <g>
            <path d="M149.1,167.9h0s0,0,0,0c0,0,0,0,0,0Z" style="fill: #fff; stroke: #d5040b; stroke-miterlimit: 10; stroke-width: 0.7px;"/>
            <path d="M217,84.5c-.4-3-1.2-5.9-2.3-8.5-.2-.4-.3-.7-.5-1,0,0-.8-1.2-1.4-1.6-.6-.4-1.9-.9-2-.9-.3,0-.7-.2-1.1-.2-2.8-.3-5.8-.2-8.8.3-4.2.7-8.5,1.9-12.7,3.3-2.5.8-13.5,5.7-16.5,7.3-4,2.1-8,4-11.8,6.7-2.3,1.6-4.6,3-6.9,4.6-2.5,1.7-5,3.4-7.4,5-1.3.8-12.6,9.3-15.5,11.6-3.7,2.9-7.2,6-10.8,9.1-5,4.3-9.7,8.7-14.5,13.2-4,3.7-7.9,7.7-11.8,11.5-.8.8-1.3,1.4-1.4,2-.2,1,.4,1.8.5,2,0,0,14.5,25.2,5.1,59.8,4.5-3.4,9.1-7.3,13.9-11.7,7.1-6.5,13.6-13.6,19.6-21.1,3.1-3.8,6-7.7,8.9-11.6.6-.8,1.1-1.7,1.8-2.5,0,0,0,0,0,0-.5-2.1-1.1-4.3-1.8-6.6-.3-.9-.5-1.8-.8-2.8-2.4-9-4.9-18.1-7.3-27.1,5.4-8.3,27.7-24.2,27.7-24.5,5.2,0,17.8.9,28.1,9.8,6.3,5.4,10,12.1,11.6,15.3,3,5.8,4.9,11.2,5.2,13.2-2.1,4.1-4.4,8.2-6.7,12.4-3.5,6.2-6.9,12-10.4,17.6-9.3-.3-18.7-.5-28-.7-.6,0-1.6,0-2.9,0-2.5,0-4.8,0-6.9,0-7.9,8.3-20.1,31-24,39.5-2.6,5.8-4.9,11.4-7,16.8,30.3-19.3,58.6-12.9,58.6-12.9.2,0,1.1.4,2,0,.5-.3,1-.9,1.5-1.9,2.5-4.9,5.1-9.8,7.5-14.7,2.8-5.9,5.7-11.8,8.3-17.8,1.9-4.3,3.8-8.7,5.5-13,1.3-3.4,6-16.8,6.4-18.3.8-2.9,1.6-5.7,2.6-8.6.8-2.6,1.5-5.3,2.3-7.9,1.4-4.4,2-8.8,2.8-13.2.6-3.3,2-15.3,2-17.9.1-4.5,0-8.9-.7-13.1Z" style="fill: #fff; stroke: #d5040b; stroke-miterlimit: 10; stroke-width: 0.7px;"/>
          </g>
        </g>
      </g>
    </g>
  </g>
</svg>

