<svg width="40" height="39" viewBox="0 0 40 39" xmlns="http://www.w3.org/2000/svg">
<path d="M9.86317 30.775C9.86317 31.1892 10.199 31.525 10.6132 31.525C11.0274 31.525 11.3632 31.1892 11.3632 30.775H9.86317ZM11.3632 26.98C11.3632 26.5657 11.0274 26.23 10.6132 26.23C10.199 26.23 9.86317 26.5657 9.86317 26.98H11.3632ZM19.2498 30.775C19.2498 31.1892 19.5856 31.525 19.9998 31.525C20.414 31.525 20.7498 31.1892 20.7498 30.775H19.2498ZM20.7498 23.185C20.7498 22.7707 20.414 22.435 19.9998 22.435C19.5856 22.435 19.2498 22.7707 19.2498 23.185H20.7498ZM28.6365 30.775C28.6365 31.1892 28.9723 31.525 29.3865 31.525C29.8007 31.525 30.1365 31.1892 30.1365 30.775H28.6365ZM30.1365 19.3716C30.1365 18.9574 29.8007 18.6216 29.3865 18.6216C28.9723 18.6216 28.6365 18.9574 28.6365 19.3716H30.1365ZM29.3865 8.22496H30.1365V7.47496H29.3865V8.22496ZM28.5432 9.21496L29.113 9.70258L29.1141 9.70131L28.5432 9.21496ZM10.4317 19.5606C10.0298 19.6608 9.78524 20.0678 9.88545 20.4697C9.98566 20.8717 10.3927 21.1162 10.7946 21.016L10.4317 19.5606ZM24.0148 7.47496C23.6006 7.47496 23.2648 7.81075 23.2648 8.22496C23.2648 8.63917 23.6006 8.97496 24.0148 8.97496V7.47496ZM28.6365 13.5783C28.6365 13.9925 28.9723 14.3283 29.3865 14.3283C29.8007 14.3283 30.1365 13.9925 30.1365 13.5783H28.6365ZM11.3632 30.775V26.98H9.86317V30.775H11.3632ZM20.7498 30.775V23.185H19.2498V30.775H20.7498ZM30.1365 30.775V19.3716H28.6365V30.775H30.1365ZM28.8156 7.73861L27.9722 8.72861L29.1141 9.70131L29.9574 8.71131L28.8156 7.73861ZM27.9733 8.72734C23.4001 14.0718 17.266 17.8565 10.4317 19.5606L10.7946 21.016C17.9303 19.2368 24.3363 15.2848 29.113 9.70258L27.9733 8.72734ZM24.0148 8.97496H29.3865V7.47496H24.0148V8.97496ZM28.6365 8.22496V13.5783H30.1365V8.22496H28.6365ZM14.4998 38.5833H25.4998V37.0833H14.4998V38.5833ZM25.4998 38.5833C30.1571 38.5833 33.6124 37.6564 35.8843 35.3845C38.1563 33.1125 39.0832 29.6573 39.0832 25H37.5832C37.5832 29.5093 36.6767 32.4708 34.8237 34.3238C32.9706 36.1768 30.0092 37.0833 25.4998 37.0833V38.5833ZM39.0832 25V14H37.5832V25H39.0832ZM39.0832 14C39.0832 9.34265 38.1563 5.88743 35.8843 3.61546C33.6124 1.34349 30.1571 0.416626 25.4998 0.416626V1.91663C30.0092 1.91663 32.9706 2.82309 34.8237 4.67612C36.6767 6.52915 37.5832 9.4906 37.5832 14H39.0832ZM25.4998 0.416626H14.4998V1.91663H25.4998V0.416626ZM14.4998 0.416626C9.84253 0.416626 6.38731 1.34349 4.11534 3.61546C1.84337 5.88743 0.916504 9.34265 0.916504 14H2.4165C2.4165 9.4906 3.32297 6.52915 5.176 4.67612C7.02903 2.82309 9.99048 1.91663 14.4998 1.91663V0.416626ZM0.916504 14V25H2.4165V14H0.916504ZM0.916504 25C0.916504 29.6573 1.84337 33.1125 4.11534 35.3845C6.38731 37.6564 9.84253 38.5833 14.4998 38.5833V37.0833C9.99048 37.0833 7.02903 36.1768 5.176 34.3238C3.32297 32.4708 2.4165 29.5093 2.4165 25H0.916504Z" />
</svg>
