<svg width="40" height="39" viewBox="0 0 40 39" xmlns="http://www.w3.org/2000/svg">
  <path d="M29.8632 16.53V22.4516C29.8632 27.3833 27.8832 29.3633 22.9515 29.3633H17.0298C12.0982 29.3633 10.1182 27.3833 10.1182 22.4516V16.53C10.1182 11.5983 12.0982 9.61827 17.0298 9.61827H22.9515C27.9015 9.6366 29.8632 11.5983 29.8632 16.53Z" stroke="currentColor" stroke-width="1.5" stroke-linecap="round" stroke-linejoin="round" fill="none"/>
  <path d="M38.3332 8.07827V14C38.3332 18.9316 36.3532 20.9116 31.4215 20.9116H29.8632V16.5483C29.8632 11.6167 27.8832 9.63662 22.9515 9.63662H18.5882V8.07827C18.5882 3.14661 20.5682 1.16663 25.4998 1.16663H31.4215C36.3532 1.16663 38.3332 3.14661 38.3332 8.07827Z" stroke="currentColor" stroke-width="1.5" stroke-linecap="round" stroke-linejoin="round" fill="none"/>
  <path d="M1.6665 30.9216V25C1.6665 20.0683 3.6465 18.0883 8.57817 18.0883H10.1365V22.4516C10.1365 27.3833 12.1165 29.3633 17.0482 29.3633H21.4115V30.9216C21.4115 35.8533 19.4315 37.8333 14.4998 37.8333H8.57817C3.6465 37.8333 1.6665 35.8533 1.6665 30.9216Z" stroke="currentColor" stroke-width="1.5" stroke-linecap="round" stroke-linejoin="round" fill="none"/>
</svg>
