 <svg
      viewBox="0 0 45 45"
      xmlns="http://www.w3.org/2000/svg"
    >
      <path
        d="M18.8333 29.8333C18.8333 26.79 18.8333 24.3333 24.3333 24.3333H31.6666C37.1666 24.3333 37.1666 22.5 37.1666 18.8333V15.1666C37.1666 11.5 37.1666 9.66663 31.6666 9.66663H29.8333M29.8333 9.66663C29.8333 13.3333 27.9999 15.1666 24.3333 15.1666H22.4999M29.8333 9.66663C29.8333 5.99996 27.9999 4.16663 24.3333 4.16663H22.4999M22.4999 4.16663H15.1666M22.4999 4.16663C23.6916 7.74163 23.6916 11.5916 22.4999 15.1666M22.4999 4.16663C24.3333 7.83329 24.3333 11.5 22.4999 15.1666M15.1666 4.16663C13.9749 7.74163 13.9749 11.5916 15.1666 15.1666M15.1666 4.16663H13.3333C9.66659 4.16663 7.83325 5.99996 7.83325 9.66663C7.83325 13.3333 9.66659 15.1666 13.3333 15.1666H15.1666M15.1666 4.16663C13.3333 7.83329 13.3333 11.5 15.1666 15.1666M15.1666 15.1666H22.4999M17.9166 40.8333H19.7499C22.4999 40.8333 22.4999 39 22.4999 38.0833V32.5833C22.4999 31.6666 22.4999 29.8333 19.7499 29.8333H17.9166C15.1666 29.8333 15.1666 31.6666 15.1666 32.5833V38.0833C15.1666 39 15.1666 40.8333 17.9166 40.8333Z"
        stroke-width="1.5"
        stroke-linecap="round"
        stroke-linejoin="round"
      />
    </svg>
