<svg width="45" height="45" viewBox="0 0 45 45" xmlns="http://www.w3.org/2000/svg">
  <path d="M18.8335 29.8333C18.8335 26.79 18.8335 24.3333 24.3335 24.3333H31.6668C37.1668 24.3333 37.1668 22.5 37.1668 18.8333V15.1666C37.1668 11.5 37.1668 9.66663 31.6668 9.66663H29.8335M29.8335 9.66663C29.8335 13.3333 28.0002 15.1666 24.3335 15.1666H22.5002M29.8335 9.66663C29.8335 5.99996 28.0002 4.16663 24.3335 4.16663H22.5002M22.5002 4.16663H15.1668M22.5002 4.16663C23.6918 7.74163 23.6918 11.5916 22.5002 15.1666M22.5002 4.16663C24.3335 7.83329 24.3335 11.5 22.5002 15.1666M15.1668 4.16663C13.9752 7.74163 13.9752 11.5916 15.1668 15.1666M15.1668 4.16663H13.3335C9.66683 4.16663 7.8335 5.99996 7.8335 9.66663C7.8335 13.3333 9.66683 15.1666 13.3335 15.1666H15.1668M15.1668 4.16663C13.3335 7.83329 13.3335 11.5 15.1668 15.1666M15.1668 15.1666H22.5002M17.9168 40.8333H19.7502C22.5002 40.8333 22.5002 39 22.5002 38.0833V32.5833C22.5002 31.6666 22.5002 29.8333 19.7502 29.8333H17.9168C15.1668 29.8333 15.1668 31.6666 15.1668 32.5833V38.0833C15.1668 39 15.1668 40.8333 17.9168 40.8333Z" fill="none" stroke-width="1.5" stroke-linecap="round" stroke-linejoin="round"/>
</svg>
